<mxfile host="app.diagrams.net" modified="2023-08-31T07:06:42.090Z" agent="Mozilla/5.0 (Macintosh; Intel Mac OS X 10_15_7) AppleWebKit/537.36 (KHTML, like Gecko) Chrome/115.0.0.0 Safari/537.36" etag="ICroloAAtCInFXCLmPfX" version="21.7.1" type="github">
  <diagram id="C5RBs43oDa-KdzZeNtuy" name="Page-1">
    <mxGraphModel dx="1047" dy="601" grid="1" gridSize="10" guides="1" tooltips="1" connect="1" arrows="1" fold="1" page="1" pageScale="1" pageWidth="827" pageHeight="1169" math="0" shadow="0">
      <root>
        <mxCell id="WIyWlLk6GJQsqaUBKTNV-0" />
        <mxCell id="WIyWlLk6GJQsqaUBKTNV-1" parent="WIyWlLk6GJQsqaUBKTNV-0" />
        <mxCell id="__dN83xERoE4JQxgRBEe-16" style="edgeStyle=orthogonalEdgeStyle;rounded=0;orthogonalLoop=1;jettySize=auto;html=1;exitX=0;exitY=0.5;exitDx=0;exitDy=0;" edge="1" parent="WIyWlLk6GJQsqaUBKTNV-1">
          <mxGeometry relative="1" as="geometry">
            <mxPoint x="530" y="129.74" as="sourcePoint" />
            <mxPoint x="460" y="129.74" as="targetPoint" />
            <Array as="points">
              <mxPoint x="490" y="130" />
              <mxPoint x="490" y="130" />
            </Array>
          </mxGeometry>
        </mxCell>
        <mxCell id="__dN83xERoE4JQxgRBEe-21" value="No" style="edgeLabel;html=1;align=center;verticalAlign=middle;resizable=0;points=[];" vertex="1" connectable="0" parent="__dN83xERoE4JQxgRBEe-16">
          <mxGeometry x="-0.3908" relative="1" as="geometry">
            <mxPoint x="-9" as="offset" />
          </mxGeometry>
        </mxCell>
        <mxCell id="__dN83xERoE4JQxgRBEe-59" value="Yes" style="edgeStyle=orthogonalEdgeStyle;rounded=0;orthogonalLoop=1;jettySize=auto;html=1;exitX=0.5;exitY=1;exitDx=0;exitDy=0;entryX=0.5;entryY=0;entryDx=0;entryDy=0;" edge="1" parent="WIyWlLk6GJQsqaUBKTNV-1" source="__dN83xERoE4JQxgRBEe-22" target="__dN83xERoE4JQxgRBEe-37">
          <mxGeometry relative="1" as="geometry">
            <Array as="points">
              <mxPoint x="590" y="190" />
              <mxPoint x="590" y="190" />
            </Array>
          </mxGeometry>
        </mxCell>
        <mxCell id="__dN83xERoE4JQxgRBEe-22" value="제스처 인식에&lt;br&gt;성공했는가?" style="rhombus;whiteSpace=wrap;html=1;" vertex="1" parent="WIyWlLk6GJQsqaUBKTNV-1">
          <mxGeometry x="530" y="90" width="120" height="80" as="geometry" />
        </mxCell>
        <mxCell id="__dN83xERoE4JQxgRBEe-44" style="edgeStyle=orthogonalEdgeStyle;rounded=0;orthogonalLoop=1;jettySize=auto;html=1;exitX=0.5;exitY=1;exitDx=0;exitDy=0;entryX=0.5;entryY=0;entryDx=0;entryDy=0;" edge="1" parent="WIyWlLk6GJQsqaUBKTNV-1" source="__dN83xERoE4JQxgRBEe-23" target="__dN83xERoE4JQxgRBEe-33">
          <mxGeometry relative="1" as="geometry" />
        </mxCell>
        <mxCell id="__dN83xERoE4JQxgRBEe-58" value="Yes" style="edgeLabel;html=1;align=center;verticalAlign=middle;resizable=0;points=[];" vertex="1" connectable="0" parent="__dN83xERoE4JQxgRBEe-44">
          <mxGeometry x="-0.8293" relative="1" as="geometry">
            <mxPoint x="-1" y="32" as="offset" />
          </mxGeometry>
        </mxCell>
        <mxCell id="__dN83xERoE4JQxgRBEe-64" style="edgeStyle=orthogonalEdgeStyle;rounded=0;orthogonalLoop=1;jettySize=auto;html=1;exitX=1;exitY=0.5;exitDx=0;exitDy=0;entryX=1;entryY=0.5;entryDx=0;entryDy=0;" edge="1" parent="WIyWlLk6GJQsqaUBKTNV-1" source="__dN83xERoE4JQxgRBEe-23" target="__dN83xERoE4JQxgRBEe-25">
          <mxGeometry relative="1" as="geometry">
            <Array as="points">
              <mxPoint x="700" y="360" />
              <mxPoint x="700" y="45" />
            </Array>
          </mxGeometry>
        </mxCell>
        <mxCell id="__dN83xERoE4JQxgRBEe-65" value="No" style="edgeLabel;html=1;align=center;verticalAlign=middle;resizable=0;points=[];" vertex="1" connectable="0" parent="__dN83xERoE4JQxgRBEe-64">
          <mxGeometry x="-0.7764" y="-1" relative="1" as="geometry">
            <mxPoint x="-21" y="6" as="offset" />
          </mxGeometry>
        </mxCell>
        <mxCell id="__dN83xERoE4JQxgRBEe-23" value="본인이&lt;br&gt;맞는가?" style="rhombus;whiteSpace=wrap;html=1;" vertex="1" parent="WIyWlLk6GJQsqaUBKTNV-1">
          <mxGeometry x="531" y="320" width="119" height="80" as="geometry" />
        </mxCell>
        <mxCell id="__dN83xERoE4JQxgRBEe-26" style="edgeStyle=orthogonalEdgeStyle;rounded=0;orthogonalLoop=1;jettySize=auto;html=1;exitX=0.5;exitY=1;exitDx=0;exitDy=0;entryX=0.5;entryY=0;entryDx=0;entryDy=0;" edge="1" parent="WIyWlLk6GJQsqaUBKTNV-1" source="__dN83xERoE4JQxgRBEe-25" target="__dN83xERoE4JQxgRBEe-22">
          <mxGeometry relative="1" as="geometry" />
        </mxCell>
        <mxCell id="__dN83xERoE4JQxgRBEe-25" value="제스처 인식&amp;nbsp;" style="rounded=1;whiteSpace=wrap;html=1;fontSize=12;glass=0;strokeWidth=1;shadow=0;" vertex="1" parent="WIyWlLk6GJQsqaUBKTNV-1">
          <mxGeometry x="545" y="30" width="90" height="30" as="geometry" />
        </mxCell>
        <mxCell id="__dN83xERoE4JQxgRBEe-33" value="물품 수령" style="rounded=1;whiteSpace=wrap;html=1;" vertex="1" parent="WIyWlLk6GJQsqaUBKTNV-1">
          <mxGeometry x="546.75" y="490" width="86.5" height="40" as="geometry" />
        </mxCell>
        <mxCell id="__dN83xERoE4JQxgRBEe-60" style="edgeStyle=orthogonalEdgeStyle;rounded=0;orthogonalLoop=1;jettySize=auto;html=1;exitX=0.5;exitY=1;exitDx=0;exitDy=0;entryX=0.5;entryY=0;entryDx=0;entryDy=0;" edge="1" parent="WIyWlLk6GJQsqaUBKTNV-1" source="__dN83xERoE4JQxgRBEe-37" target="__dN83xERoE4JQxgRBEe-23">
          <mxGeometry relative="1" as="geometry" />
        </mxCell>
        <mxCell id="__dN83xERoE4JQxgRBEe-61" value="Yes" style="edgeLabel;html=1;align=center;verticalAlign=middle;resizable=0;points=[];" vertex="1" connectable="0" parent="__dN83xERoE4JQxgRBEe-60">
          <mxGeometry x="0.0227" relative="1" as="geometry">
            <mxPoint as="offset" />
          </mxGeometry>
        </mxCell>
        <mxCell id="__dN83xERoE4JQxgRBEe-37" value="주문자 촬영 및&lt;br style=&quot;border-color: var(--border-color);&quot;&gt;확인 알림 전송" style="rounded=0;whiteSpace=wrap;html=1;" vertex="1" parent="WIyWlLk6GJQsqaUBKTNV-1">
          <mxGeometry x="540" y="210" width="100" height="50" as="geometry" />
        </mxCell>
        <mxCell id="__dN83xERoE4JQxgRBEe-40" style="edgeStyle=orthogonalEdgeStyle;rounded=0;orthogonalLoop=1;jettySize=auto;html=1;exitX=0;exitY=0.5;exitDx=0;exitDy=0;entryX=1;entryY=0.5;entryDx=0;entryDy=0;" edge="1" parent="WIyWlLk6GJQsqaUBKTNV-1" source="__dN83xERoE4JQxgRBEe-39" target="__dN83xERoE4JQxgRBEe-49">
          <mxGeometry relative="1" as="geometry">
            <mxPoint x="359.94957983193285" y="130.02857142857135" as="targetPoint" />
            <Array as="points" />
          </mxGeometry>
        </mxCell>
        <mxCell id="__dN83xERoE4JQxgRBEe-39" value="2차 제스처&amp;nbsp;&lt;br&gt;전송" style="rounded=0;whiteSpace=wrap;html=1;" vertex="1" parent="WIyWlLk6GJQsqaUBKTNV-1">
          <mxGeometry x="390" y="108.75" width="70" height="42.5" as="geometry" />
        </mxCell>
        <mxCell id="__dN83xERoE4JQxgRBEe-45" style="edgeStyle=orthogonalEdgeStyle;rounded=0;orthogonalLoop=1;jettySize=auto;html=1;exitX=0.5;exitY=0;exitDx=0;exitDy=0;entryX=0;entryY=0.5;entryDx=0;entryDy=0;" edge="1" parent="WIyWlLk6GJQsqaUBKTNV-1" source="__dN83xERoE4JQxgRBEe-43" target="__dN83xERoE4JQxgRBEe-25">
          <mxGeometry relative="1" as="geometry" />
        </mxCell>
        <mxCell id="__dN83xERoE4JQxgRBEe-55" value="Yes" style="edgeLabel;html=1;align=center;verticalAlign=middle;resizable=0;points=[];" vertex="1" connectable="0" parent="__dN83xERoE4JQxgRBEe-45">
          <mxGeometry x="-0.9117" y="3" relative="1" as="geometry">
            <mxPoint x="3" as="offset" />
          </mxGeometry>
        </mxCell>
        <mxCell id="__dN83xERoE4JQxgRBEe-52" style="edgeStyle=orthogonalEdgeStyle;rounded=0;orthogonalLoop=1;jettySize=auto;html=1;exitX=0.5;exitY=1;exitDx=0;exitDy=0;entryX=0.5;entryY=0;entryDx=0;entryDy=0;" edge="1" parent="WIyWlLk6GJQsqaUBKTNV-1" source="__dN83xERoE4JQxgRBEe-43" target="__dN83xERoE4JQxgRBEe-47">
          <mxGeometry relative="1" as="geometry" />
        </mxCell>
        <mxCell id="__dN83xERoE4JQxgRBEe-54" value="No" style="edgeLabel;html=1;align=center;verticalAlign=middle;resizable=0;points=[];" vertex="1" connectable="0" parent="__dN83xERoE4JQxgRBEe-52">
          <mxGeometry x="-0.7276" y="-1" relative="1" as="geometry">
            <mxPoint x="1" y="29" as="offset" />
          </mxGeometry>
        </mxCell>
        <mxCell id="__dN83xERoE4JQxgRBEe-43" value="인식 재시도 선택?" style="rhombus;whiteSpace=wrap;html=1;" vertex="1" parent="WIyWlLk6GJQsqaUBKTNV-1">
          <mxGeometry x="40" y="90" width="110" height="80" as="geometry" />
        </mxCell>
        <mxCell id="__dN83xERoE4JQxgRBEe-47" value="GPS 기준 착륙" style="rounded=1;whiteSpace=wrap;html=1;" vertex="1" parent="WIyWlLk6GJQsqaUBKTNV-1">
          <mxGeometry x="50" y="320" width="90" height="40" as="geometry" />
        </mxCell>
        <mxCell id="__dN83xERoE4JQxgRBEe-50" style="edgeStyle=orthogonalEdgeStyle;rounded=0;orthogonalLoop=1;jettySize=auto;html=1;exitX=0.5;exitY=1;exitDx=0;exitDy=0;entryX=0;entryY=0.5;entryDx=0;entryDy=0;" edge="1" parent="WIyWlLk6GJQsqaUBKTNV-1" source="__dN83xERoE4JQxgRBEe-49" target="__dN83xERoE4JQxgRBEe-37">
          <mxGeometry relative="1" as="geometry">
            <Array as="points">
              <mxPoint x="280" y="235" />
            </Array>
          </mxGeometry>
        </mxCell>
        <mxCell id="__dN83xERoE4JQxgRBEe-51" value="Yes" style="edgeLabel;html=1;align=center;verticalAlign=middle;resizable=0;points=[];" vertex="1" connectable="0" parent="__dN83xERoE4JQxgRBEe-50">
          <mxGeometry x="-0.8486" y="-2" relative="1" as="geometry">
            <mxPoint x="2" y="-8" as="offset" />
          </mxGeometry>
        </mxCell>
        <mxCell id="__dN83xERoE4JQxgRBEe-56" style="edgeStyle=orthogonalEdgeStyle;rounded=0;orthogonalLoop=1;jettySize=auto;html=1;exitX=0;exitY=0.5;exitDx=0;exitDy=0;entryX=1;entryY=0.5;entryDx=0;entryDy=0;" edge="1" parent="WIyWlLk6GJQsqaUBKTNV-1" source="__dN83xERoE4JQxgRBEe-49" target="__dN83xERoE4JQxgRBEe-43">
          <mxGeometry relative="1" as="geometry" />
        </mxCell>
        <mxCell id="__dN83xERoE4JQxgRBEe-57" value="No" style="edgeLabel;html=1;align=center;verticalAlign=middle;resizable=0;points=[];" vertex="1" connectable="0" parent="__dN83xERoE4JQxgRBEe-56">
          <mxGeometry x="-0.1143" relative="1" as="geometry">
            <mxPoint as="offset" />
          </mxGeometry>
        </mxCell>
        <mxCell id="__dN83xERoE4JQxgRBEe-49" value="2차 제스처 인증에&lt;br&gt;성공했는가?" style="rhombus;whiteSpace=wrap;html=1;" vertex="1" parent="WIyWlLk6GJQsqaUBKTNV-1">
          <mxGeometry x="210" y="90" width="140" height="80" as="geometry" />
        </mxCell>
      </root>
    </mxGraphModel>
  </diagram>
</mxfile>
